<svg width="50" height="50" viewBox="0 0 50 50" fill="none" xmlns="http://www.w3.org/2000/svg">
<rect width="50" height="50" rx="25" fill="url(#paint0_linear)"/>
<path d="M18.3866 26.5801H29.593C30.8637 26.5801 31.9003 25.5435 31.9003 24.2728V19.5578C31.9003 19.5537 31.9003 19.5453 31.9003 19.5411C31.9003 19.5286 31.9003 19.5202 31.9003 19.5077C31.9003 19.4993 31.9003 19.491 31.8961 19.4826C31.8961 19.4743 31.8919 19.4617 31.8919 19.4534C31.8919 19.445 31.8877 19.4366 31.8877 19.4283C31.8835 19.4199 31.8835 19.4116 31.8794 19.399C31.8752 19.3907 31.8752 19.3823 31.871 19.3739C31.8668 19.3656 31.8668 19.3572 31.8626 19.3489C31.8585 19.3405 31.8543 19.3321 31.8501 19.3196C31.8459 19.3112 31.8417 19.3029 31.8376 19.2987C31.8334 19.2903 31.8292 19.282 31.825 19.2736C31.8209 19.2653 31.8167 19.2611 31.8125 19.2527C31.8083 19.2444 31.8 19.236 31.7958 19.2276C31.7916 19.2193 31.7874 19.2151 31.7791 19.2067C31.7749 19.1984 31.7665 19.1942 31.7623 19.1858C31.7582 19.1775 31.7498 19.1733 31.7456 19.1649C31.7414 19.1566 31.7331 19.1524 31.7289 19.1482C31.7205 19.1399 31.7164 19.1357 31.708 19.1273C31.6996 19.1231 31.6955 19.1148 31.6871 19.1106C31.6787 19.1064 31.6704 19.0981 31.662 19.0939C31.6537 19.0897 31.6495 19.0855 31.6411 19.0813C31.6328 19.0772 31.6244 19.073 31.616 19.0646C31.6077 19.0604 31.5993 19.0563 31.591 19.0521C31.5826 19.0479 31.5742 19.0437 31.5659 19.0395C31.5575 19.0354 31.5492 19.0312 31.5408 19.027C31.5324 19.0228 31.5241 19.0228 31.5157 19.0186C31.5074 19.0145 31.4948 19.0103 31.4865 19.0103C31.4781 19.0103 31.4697 19.0061 31.4656 19.0061C31.453 19.0019 31.4447 19.0019 31.4321 19.0019C31.4279 19.0019 31.4238 18.9977 31.4154 18.9977L17.212 17.0374V15.0561C17.212 15.0352 17.212 15.0143 17.2079 14.9976C17.2079 14.9934 17.2079 14.9892 17.2037 14.9808C17.2037 14.9683 17.1995 14.9558 17.1995 14.9432C17.1953 14.9307 17.1953 14.9223 17.1911 14.9098C17.1911 14.9014 17.187 14.8972 17.187 14.8889C17.1828 14.8763 17.1786 14.8638 17.1744 14.8513C17.1744 14.8471 17.1702 14.8387 17.1702 14.8345C17.1661 14.822 17.1619 14.8136 17.1535 14.8011C17.1493 14.7969 17.1493 14.7886 17.1452 14.7844C17.141 14.776 17.1368 14.7677 17.1284 14.7593C17.1243 14.7509 17.1201 14.7468 17.1159 14.7384C17.1117 14.73 17.1076 14.7259 17.1034 14.7175C17.0992 14.7091 17.0908 14.7008 17.0867 14.6924C17.0825 14.6882 17.0783 14.6841 17.0741 14.6799C17.0658 14.6715 17.0574 14.6632 17.049 14.6548C17.0449 14.6506 17.0407 14.6464 17.0365 14.6423C17.0281 14.6339 17.0198 14.6255 17.0072 14.6172C17.0031 14.613 16.9947 14.6088 16.9905 14.6046C16.9822 14.5963 16.9738 14.5921 16.9654 14.5838C16.9529 14.5754 16.9404 14.567 16.932 14.5629C16.9278 14.5587 16.9236 14.5587 16.9195 14.5545C16.9027 14.5461 16.8818 14.5378 16.8651 14.5294L13.7845 13.2336C13.4961 13.1124 13.1659 13.2462 13.0447 13.5346C12.9235 13.823 13.0572 14.1532 13.3456 14.2744L16.0793 15.4281V17.9862V18.3917V21.5015V24.2812V27.7923C16.0793 28.9627 16.9571 29.9324 18.0898 30.0787C17.885 30.4214 17.7638 30.8227 17.7638 31.2491C17.7638 32.5072 18.7879 33.5271 20.0419 33.5271C21.2958 33.5271 22.3199 32.503 22.3199 31.2491C22.3199 30.8311 22.207 30.434 22.0064 30.0996H27.0808C26.8802 30.4382 26.7673 30.8311 26.7673 31.2491C26.7673 32.5072 27.7914 33.5271 29.0454 33.5271C30.2994 33.5271 31.3234 32.503 31.3234 31.2491C31.3234 29.9951 30.2994 28.971 29.0454 28.971H18.3866C17.7345 28.971 17.2079 28.4402 17.2079 27.7923V26.2624C17.5506 26.4631 17.9561 26.5801 18.3866 26.5801ZM21.1955 31.2449C21.1955 31.8802 20.6772 32.3944 20.046 32.3944C19.4149 32.3944 18.8966 31.8761 18.8966 31.2449C18.8966 30.6137 19.4149 30.0954 20.046 30.0954C20.6772 30.0954 21.1955 30.6095 21.1955 31.2449ZM30.199 31.2449C30.199 31.8802 29.6807 32.3944 29.0496 32.3944C28.4184 32.3944 27.9001 31.8761 27.9001 31.2449C27.9001 30.6137 28.4184 30.0954 29.0496 30.0954C29.6807 30.0954 30.199 30.6095 30.199 31.2449ZM29.593 25.4515H18.3866C17.7345 25.4515 17.2079 24.9207 17.2079 24.2728V21.4932V18.3833V18.1743L30.7717 20.0427V24.2686C30.7717 24.9249 30.2408 25.4515 29.593 25.4515Z" fill="white"/>
<defs>
<linearGradient id="paint0_linear" x1="25" y1="0" x2="25" y2="50" gradientUnits="userSpaceOnUse">
<stop stop-color="#FF8F76"/>
<stop offset="1" stop-color="#FF5C38"/>
</linearGradient>
</defs>
</svg>
