<svg width="36" height="36" viewBox="0 0 36 36" fill="none" xmlns="http://www.w3.org/2000/svg">
<path d="M35.9934 12C35.934 10.8593 34.713 9.968 32.271 9.288C32.3532 9.088 32.3994 8.88 32.4 8.664V4H32.3898C32.175 0.114667 17.8458 0 16.2 0C14.5542 0 0.225 0.114667 0.0102 4H0V4.08667V8.666C0.003 9.93267 1.4742 10.924 3.663 11.662C3.633 11.7727 3.615 11.8853 3.609 12H3.6V12.0867V16.658C1.242 17.3327 0.0642 18.2113 0.006 19.3333H0V19.42V23.9993C0.0018 24.8813 0.7176 25.6293 1.8888 26.2527C1.8444 26.388 1.8168 26.526 1.809 26.6673H1.8V26.754V31.3333C1.8048 33.5507 6.2982 34.9273 11.2908 35.57C11.3274 35.578 11.361 35.5947 11.4 35.5947C11.4114 35.5947 11.421 35.588 11.4324 35.5873C12.3948 35.708 13.3728 35.802 14.3406 35.8693C14.361 35.872 14.379 35.8827 14.4 35.8827C14.4114 35.8827 14.4204 35.876 14.4312 35.8753C15.66 35.958 16.869 36 18 36C19.131 36 20.34 35.958 21.5688 35.8747C21.5796 35.8753 21.5892 35.882 21.6 35.882C21.621 35.882 21.639 35.8707 21.6594 35.8687C22.6272 35.8013 23.6052 35.708 24.5676 35.5867C24.579 35.5867 24.5886 35.5933 24.6 35.5933C24.639 35.5933 24.6726 35.5767 24.7092 35.5687C29.7018 34.926 34.1946 33.5487 34.2 31.3307V26.6667H34.1904C34.1484 25.8493 33.5214 25.1673 32.283 24.5973C32.3586 24.4047 32.4 24.2047 32.4 23.9973V19.64C34.554 18.904 35.997 17.9193 36 16.664V12H35.9934ZM31.1352 24.214L30.9306 24.4133C30.6156 24.722 30.0906 25.0333 29.4 25.3333V22.1547C30.1134 21.8787 30.7206 21.5727 31.2 21.2373V23.996C31.2 24.0647 31.1772 24.138 31.1352 24.214ZM17.7156 27.312C17.628 27.3147 17.5398 27.316 17.4516 27.318C17.2374 27.3227 17.0178 27.324 16.8006 27.326V23.996C16.9656 23.994 17.1306 23.9913 17.2956 23.988C17.3274 23.9873 17.3592 23.9867 17.391 23.986C17.9952 23.9733 18.5994 23.9527 19.2006 23.922V27.2507C19.0722 27.258 18.9432 27.2647 18.813 27.2707C18.4518 27.2887 18.087 27.302 17.7156 27.312ZM15.0954 27.3213C14.8206 27.316 14.547 27.3087 14.2752 27.2993C14.2416 27.298 14.208 27.2967 14.1744 27.2953C13.8474 27.2833 13.5228 27.268 13.2006 27.2507V23.9227C13.8018 23.954 14.406 23.9747 15.0102 23.9867C15.042 23.9873 15.0738 23.988 15.105 23.9887C15.27 23.992 15.435 23.9947 15.6 23.9967V27.3287C15.4836 27.3273 15.3672 27.3273 15.2514 27.3253C15.1986 27.324 15.1476 27.322 15.0954 27.3213ZM4.2582 25.8013C4.2384 25.7947 4.2198 25.7887 4.2 25.7827V22.562C4.7604 22.73 5.3628 22.8833 6 23.0227V26.2767C5.4492 26.1467 4.941 26.01 4.4784 25.87C4.4052 25.8467 4.3296 25.8247 4.2582 25.8013ZM16.905 31.322C17.07 31.3253 17.235 31.328 17.4 31.33V34.6627C16.5708 34.654 15.7704 34.6273 15 34.5853V31.2567C15.6012 31.288 16.2054 31.3087 16.8096 31.3207C16.8414 31.3207 16.8732 31.3213 16.905 31.322ZM19.1904 31.32C19.7946 31.3073 20.3988 31.2867 21 31.256V34.5847C20.2296 34.6267 19.4292 34.6533 18.6 34.662V31.3293C18.765 31.3273 18.93 31.3247 19.095 31.3213C19.1268 31.3213 19.1586 31.3207 19.1904 31.32ZM24 31.0187V34.3293C23.4234 34.3967 22.8234 34.456 22.2 34.5047V31.18C22.8084 31.136 23.4096 31.082 24 31.0187ZM25.2 30.8747C25.8186 30.792 26.4192 30.698 27 30.5933V33.8667C26.4348 33.9773 25.8342 34.0793 25.2 34.172V30.8747ZM28.2 30.3553C28.8372 30.216 29.4396 30.0627 30 29.8947V33.1153C29.4654 33.2867 28.8636 33.4527 28.2 33.6093V30.3553ZM7.8 30.3553V33.6093C7.1364 33.4527 6.5346 33.2867 6 33.1153V29.8947C6.5604 30.0627 7.1628 30.2167 7.8 30.3553ZM9 30.594C9.5808 30.6987 10.1814 30.7927 10.8 30.8753V34.1727C10.1658 34.08 9.5652 33.978 9 33.8673V30.594ZM12 31.0187C12.5904 31.082 13.1916 31.136 13.8 31.1807V34.5053C13.1766 34.4567 12.5766 34.3973 12 34.33V31.0187ZM10.5114 27.032C10.4502 27.0253 10.3896 27.018 10.329 27.0113C10.2858 27.0067 10.2432 27.0007 10.2 26.996V23.686C10.7904 23.7493 11.3916 23.8033 12 23.848V27.17C11.496 27.13 10.998 27.0847 10.5114 27.032ZM9 23.5413V26.8387C8.3658 26.746 7.7652 26.644 7.2 26.5333V23.26C7.7808 23.3647 8.3814 23.4593 9 23.5413ZM20.7996 27.1387C20.6676 27.15 20.5344 27.1613 20.4 27.172V23.8473C21.0084 23.8027 21.6096 23.7493 22.2 23.6853V26.996C21.8292 27.0393 21.45 27.08 21.0606 27.1153C20.9736 27.124 20.8866 27.1313 20.7996 27.1387ZM23.4 26.8387V23.5413C24.0186 23.4587 24.6192 23.3647 25.2 23.26V26.5333C24.6348 26.644 24.0342 26.7467 23.4 26.8387ZM26.4 23.022C27.0372 22.8827 27.6396 22.7293 28.2 22.5613V25.782C27.6654 25.9533 27.0636 26.1193 26.4 26.276V23.022ZM18.195 19.9767C17.7438 19.964 17.3028 19.9447 16.8696 19.9213C16.8462 19.92 16.8228 19.9187 16.8 19.918V16.5893C17.4012 16.6207 18.0054 16.6413 18.6096 16.6533C18.6414 16.654 18.6732 16.6547 18.7044 16.6553C18.8694 16.6587 19.0344 16.6613 19.1994 16.6633V19.992C18.9072 19.9887 18.6126 19.9873 18.3276 19.98C18.2838 19.9787 18.2388 19.978 18.195 19.9767ZM4.2 10.4493V7.22867C4.7604 7.39667 5.3628 7.55 6 7.68933V10.9433C5.9262 10.926 5.85 10.9087 5.778 10.8913C5.4588 10.8133 5.1474 10.732 4.8498 10.646C4.623 10.5813 4.4076 10.5153 4.2 10.4493ZM15.105 8.65533C15.27 8.65867 15.435 8.66133 15.6 8.66333V11.992C14.7924 11.9833 13.9896 11.96 13.2 11.916V8.59C13.8012 8.62133 14.4054 8.642 15.0096 8.654C15.0414 8.654 15.0732 8.65467 15.105 8.65533ZM17.3904 8.65333C17.9946 8.64067 18.5988 8.62 19.2 8.58933V11.9153C19.098 11.9207 19.0002 11.9287 18.8976 11.934C18.8892 11.9347 18.8808 11.9347 18.8718 11.9353C18.4692 11.9553 18.0588 11.97 17.643 11.9807C17.5782 11.9827 17.5134 11.9833 17.4486 11.9853C17.235 11.99 17.0166 11.9907 16.8 11.9933V8.66333C16.965 8.66133 17.13 8.65867 17.295 8.65533C17.3268 8.65467 17.3586 8.654 17.3904 8.65333ZM31.0626 8.988L31.0458 8.984L30.8274 9.17267C30.5106 9.44667 30.024 9.724 29.4 9.992V6.82067C30.1134 6.54467 30.7206 6.23867 31.2 5.90333V8.662C31.2 8.76333 31.152 8.87267 31.0626 8.988ZM23.4 11.5013V8.208C24.0186 8.12533 24.6192 8.03133 25.2 7.92667V11.1947C24.6312 11.3067 24.0324 11.4093 23.4 11.5013ZM26.4 10.938V7.68933C27.0372 7.55 27.6396 7.39667 28.2 7.22867V10.442C27.6624 10.616 27.057 10.782 26.4 10.938ZM22.2 8.352V11.6587C21.6204 11.7267 21.0204 11.786 20.4 11.8353V8.514C21.0084 8.46933 21.6096 8.41533 22.2 8.352ZM10.2 11.66V8.352C10.7904 8.41533 11.3916 8.46933 12 8.514V11.8327C11.3892 11.784 10.7868 11.7287 10.2 11.66ZM9 8.208V11.502C8.8812 11.4847 8.7576 11.4707 8.64 11.4527C8.5632 11.4407 8.49 11.428 8.4144 11.416C8.0676 11.3607 7.7286 11.3013 7.3962 11.2393C7.3296 11.2267 7.2654 11.2133 7.2 11.2007V7.92733C7.7808 8.03133 8.3814 8.126 9 8.208ZM15.4512 19.826C15.3702 19.8193 15.2886 19.8127 15.2082 19.806C14.8242 19.7727 14.4492 19.736 14.0832 19.6953C14.0046 19.6867 13.926 19.6773 13.848 19.6687C13.8318 19.6667 13.8162 19.664 13.8 19.6627V16.352C14.3904 16.4153 14.9916 16.4693 15.6 16.514V19.8367C15.5514 19.8327 15.4998 19.83 15.4512 19.826ZM11.487 19.328C11.2494 19.286 11.0262 19.2407 10.8 19.1967V15.9273C11.3808 16.032 11.9814 16.126 12.6 16.2087V19.506C12.2328 19.452 11.8734 19.396 11.5284 19.336C11.5146 19.3327 11.5008 19.33 11.487 19.328ZM9.6 15.6887V18.9373C8.937 18.7793 8.3358 18.6113 7.8 18.4367V15.228C8.3604 15.396 8.9628 15.55 9.6 15.6887ZM6.6 14.8207V17.988C5.6568 17.5833 5.0484 17.17 4.8504 16.802L4.8102 16.7273C4.8066 16.7067 4.8006 16.6847 4.8 16.664V13.9033C5.2794 14.2387 5.8866 14.5447 6.6 14.8207ZM20.9904 16.6533C21.5946 16.6407 22.1988 16.62 22.8 16.5893V19.9147C22.0116 19.958 21.21 19.982 20.4 19.9913V16.6633C20.565 16.6613 20.73 16.6587 20.895 16.6553C20.9268 16.6547 20.9586 16.654 20.9904 16.6533ZM28.7442 19.2113C28.4808 19.262 28.215 19.312 27.942 19.358C27.7854 19.3847 27.6252 19.41 27.4644 19.4353C27.3126 19.4593 27.1548 19.48 27.0006 19.502V16.208C27.6192 16.1253 28.2198 16.0313 28.8006 15.9267V19.2C28.7814 19.204 28.7628 19.208 28.7442 19.2113ZM24.6816 19.7807C24.4578 19.8013 24.2268 19.8147 24 19.8327V16.514C24.6084 16.4693 25.2096 16.416 25.8 16.352V19.6593C25.4514 19.7 25.1034 19.7407 24.7452 19.774C24.7236 19.776 24.7032 19.7787 24.6816 19.7807ZM31.5384 18.5307C31.2396 18.6233 30.9234 18.71 30.6006 18.7947C30.4512 18.8333 30.2988 18.872 30.1428 18.9093C30.0966 18.9207 30.0474 18.9307 30.0006 18.942V15.6893C30.6378 15.55 31.2402 15.3967 31.8006 15.2287V18.4493C31.7142 18.476 31.6272 18.5033 31.5384 18.5307ZM34.7934 12.0433C34.7382 12.496 33.8148 13.098 32.1666 13.664C30.0438 14.3927 26.7222 15.06 22.5126 15.2667C22.2972 15.2767 22.0824 15.2867 21.8628 15.2947C21.6834 15.3013 21.5034 15.3073 21.3204 15.3127C20.8236 15.3247 20.3196 15.3333 19.8 15.3333C19.2804 15.3333 18.7764 15.3247 18.2796 15.312C18.0972 15.3073 17.9172 15.3007 17.7372 15.294C17.517 15.2867 17.3022 15.276 17.0874 15.266C12.8778 15.0593 9.5556 14.392 7.4334 13.6633C5.7984 13.102 4.8768 12.5047 4.8084 12.054C4.8114 12.0413 4.8114 12.0307 4.8186 12.0147C4.8594 12.026 4.905 12.0353 4.9464 12.0467C5.181 12.1087 5.4216 12.1687 5.6664 12.226C6.8586 12.5113 8.1798 12.7453 9.5874 12.924C9.5922 12.924 9.5958 12.9267 9.6 12.9267C9.6012 12.9267 9.6024 12.926 9.603 12.926C10.5618 13.0473 11.5566 13.1427 12.5778 13.21C12.5856 13.21 12.5922 13.2147 12.6 13.2147C12.6042 13.2147 12.6072 13.212 12.6114 13.212C13.3464 13.26 14.091 13.2953 14.8446 13.314C15.306 13.3267 15.759 13.3333 16.2 13.3333C16.515 13.3333 16.8378 13.3293 17.1636 13.3227C21.5232 13.248 25.5636 12.672 28.3752 11.7793C28.5048 11.7387 28.6314 11.6967 28.7562 11.6547C28.8324 11.6287 28.9104 11.6033 28.9842 11.5773C29.2014 11.5 29.4096 11.4207 29.6106 11.338C29.6454 11.3233 29.6784 11.3087 29.7132 11.294C29.883 11.2227 30.0462 11.1487 30.2022 11.0733C30.2472 11.0513 30.2934 11.03 30.3372 11.008C30.5034 10.9247 30.6642 10.8393 30.813 10.7507C30.8802 10.7113 30.9384 10.6707 31.0014 10.6307C31.0734 10.5847 31.1454 10.538 31.212 10.4907C31.2498 10.464 31.2948 10.4387 31.3308 10.412C34.017 11.0593 34.725 11.7673 34.7934 12.0433ZM16.2 1.33333C26.0934 1.33333 31.0974 3.064 31.191 4.05733C31.1184 4.508 30.1974 5.10333 28.5666 5.66333C26.4438 6.392 23.1222 7.05933 18.9126 7.266C18.6972 7.276 18.4824 7.286 18.2628 7.294C18.0834 7.30067 17.9034 7.30667 17.7204 7.312C17.2236 7.32467 16.7196 7.33333 16.2 7.33333C15.6804 7.33333 15.1764 7.32467 14.6796 7.312C14.4972 7.30733 14.3172 7.30067 14.1372 7.294C13.917 7.28667 13.7022 7.276 13.4874 7.266C9.2778 7.05933 5.9556 6.392 3.8334 5.66333C2.202 5.10333 1.2816 4.508 1.209 4.05733C1.3026 3.064 6.3066 1.33333 16.2 1.33333ZM1.2 8.664V5.90333C1.6794 6.23867 2.2866 6.54467 3 6.82067V10.0127C1.833 9.52667 1.2012 9.03933 1.2 8.664ZM4.1064 17.89C4.1154 17.9007 4.1292 17.91 4.1382 17.9207C4.9596 18.842 6.6606 19.566 8.778 20.106C8.8266 20.1187 8.8782 20.1307 8.9274 20.1433C9.0828 20.182 9.2406 20.22 9.4002 20.2567C11.3448 20.7167 13.6662 21.0493 16.1952 21.214C16.197 21.214 16.1982 21.2147 16.1994 21.2147C16.2006 21.2147 16.2012 21.214 16.2018 21.214C17.0142 21.2667 17.8452 21.3033 18.6936 21.3193C19.0692 21.328 19.4388 21.3333 19.8 21.3333C20.214 21.3333 20.6388 21.328 21.0708 21.3167C21.8556 21.2987 22.629 21.2627 23.3916 21.2133C23.3946 21.2133 23.397 21.2153 23.4 21.2153C23.4054 21.2153 23.4096 21.212 23.415 21.212C25.9506 21.046 28.3296 20.71 30.3414 20.2267C29.9058 20.48 29.3094 20.742 28.5666 20.9973C26.3256 21.7667 22.7466 22.4673 18.198 22.63C18.063 22.6347 17.9298 22.64 17.793 22.644C17.646 22.648 17.4966 22.6507 17.3472 22.654C16.9698 22.6607 16.59 22.6667 16.2 22.6667C15.6804 22.6667 15.1764 22.658 14.6796 22.6453C14.4972 22.6407 14.3172 22.634 14.1372 22.6273C13.917 22.62 13.7022 22.6093 13.4874 22.5993C9.2778 22.3927 5.9556 21.7253 3.8334 20.9967C2.1834 20.43 1.26 19.8273 1.2066 19.3747C1.2732 19.124 1.8798 18.4967 4.1064 17.89ZM1.2 23.9973V21.2367C1.6794 21.572 2.2866 21.878 3 22.154V25.3333L2.6574 25.1853L2.6502 25.1933C1.7082 24.7593 1.2012 24.3333 1.2 23.9973ZM3 31.3307V28.57C3.4794 28.9053 4.0866 29.2113 4.8 29.4873V32.6793C3.633 32.1933 3.0012 31.706 3 31.3307ZM31.2 32.6793V29.488C31.9134 29.212 32.5206 28.906 33 28.5707V31.3293C32.9994 31.7047 32.367 32.1927 31.2 32.6793ZM32.9922 26.718C32.9268 27.1693 32.0052 27.768 30.3666 28.3307C28.2438 29.0593 24.9222 29.7267 20.7126 29.9333C20.4972 29.9433 20.2824 29.9533 20.0628 29.9613C19.8834 29.968 19.7034 29.974 19.5204 29.9793C19.0236 29.9913 18.5196 30 18 30C17.4804 30 16.9758 29.9913 16.4784 29.9787C16.2978 29.974 16.1196 29.9673 15.9414 29.9607C15.72 29.9527 15.504 29.9427 15.2874 29.9327C11.0778 29.726 7.7562 29.0587 5.6334 28.33C4.0464 27.7853 3.1296 27.2067 3.0144 26.76C3.1932 26.8293 3.3786 26.8967 3.5688 26.9627C3.588 26.9693 3.6072 26.976 3.6264 26.982C3.7884 27.0373 3.954 27.0907 4.1238 27.1427C4.188 27.1627 4.2528 27.1827 4.3182 27.202C4.4142 27.2307 4.5126 27.258 4.611 27.286C6.7962 27.908 9.5856 28.3487 12.597 28.5467C12.5982 28.5467 12.5988 28.5473 12.6 28.5473C12.6006 28.5473 12.6012 28.5467 12.6018 28.5467C13.5318 28.608 14.4816 28.646 15.4416 28.6587C15.6972 28.664 15.951 28.6667 16.2 28.6667C16.5306 28.6667 16.869 28.662 17.2116 28.6553C18.087 28.6393 18.951 28.6033 19.7958 28.5473C19.7976 28.5473 19.7988 28.5487 19.8006 28.5487C19.8036 28.5487 19.8054 28.5467 19.8084 28.5467C20.8374 28.478 21.8334 28.38 22.7904 28.258C22.794 28.258 22.797 28.26 22.8006 28.26C22.8138 28.26 22.8246 28.2527 22.8378 28.2513C23.9034 28.1147 24.9138 27.9467 25.8516 27.7513C26.0448 27.712 26.235 27.6713 26.4234 27.6293C26.4654 27.62 26.5074 27.6107 26.5494 27.6007C28.3212 27.1967 29.8548 26.6733 30.9072 26.0247C30.9648 25.99 31.0188 25.954 31.0734 25.9187C31.14 25.8747 31.2036 25.83 31.2654 25.7847C31.323 25.7433 31.3896 25.7033 31.4424 25.6613C32.6268 26.1307 32.9532 26.5507 32.9922 26.718ZM33 18.0127V14.8213C33.7134 14.5453 34.3206 14.2393 34.8 13.904V16.6627C34.7994 17.038 34.167 17.526 33 18.0127Z" fill="#FF5C38"/>
</svg>
