<svg width="15" height="14" viewBox="0 0 15 14" fill="none" xmlns="http://www.w3.org/2000/svg">
<path d="M8.13611 14C8.08975 14 8.04339 14 7.99671 13.9998C6.89929 14.0025 5.88529 13.9746 4.89917 13.9146C3.99508 13.8596 3.16982 13.5471 2.51248 13.0112C1.87821 12.494 1.44507 11.7947 1.22514 10.9329C1.03372 10.1827 1.02358 9.44622 1.01386 8.73389C1.00681 8.22279 0.999542 7.61717 0.998047 7.00129C0.999542 6.38285 1.00681 5.77723 1.01386 5.26613C1.02358 4.55391 1.03372 3.81745 1.22514 3.06709C1.44507 2.20533 1.87821 1.50604 2.51248 0.988855C3.16982 0.452873 3.99508 0.140449 4.89927 0.0854407C5.88539 0.0255193 6.89961 -0.00246543 7.99938 0.000204865C9.09713 -0.00214499 10.1108 0.0255193 11.0969 0.0854407C12.001 0.140449 12.8263 0.452873 13.4836 0.988855C14.118 1.50604 14.551 2.20533 14.771 3.06709C14.9624 3.81734 14.9725 4.55391 14.9822 5.26613C14.9893 5.77723 14.9967 6.38285 14.998 6.99873V7.00129C14.9967 7.61717 14.9893 8.22279 14.9822 8.73389C14.9725 9.44611 14.9625 10.1826 14.771 10.9329C14.551 11.7947 14.118 12.494 13.4836 13.0112C12.8263 13.5471 12.001 13.8596 11.0969 13.9146C10.1526 13.972 9.18247 14 8.13611 14ZM7.99671 12.9061C9.0763 12.9086 10.0675 12.8814 11.0305 12.8229C11.7141 12.7813 12.3068 12.5595 12.7924 12.1635C13.2413 11.7975 13.5504 11.2925 13.7111 10.6625C13.8705 10.038 13.8797 9.36739 13.8886 8.71893C13.8955 8.21126 13.9028 7.60991 13.9043 7.00001C13.9028 6.39001 13.8955 5.78876 13.8886 5.28109C13.8797 4.63263 13.8705 3.96207 13.7111 3.33743C13.5504 2.70746 13.2413 2.20245 12.7924 1.83641C12.3068 1.44056 11.7141 1.21871 11.0305 1.17716C10.0675 1.11852 9.0763 1.0915 7.99928 1.09385C6.9199 1.09129 5.92855 1.11852 4.96561 1.17716C4.28199 1.21871 3.68927 1.44056 3.20368 1.83641C2.75484 2.20245 2.44572 2.70746 2.28496 3.33743C2.12559 3.96207 2.11641 4.63253 2.10754 5.28109C2.1006 5.78919 2.09333 6.39086 2.09184 7.00129C2.09333 7.60905 2.1006 8.21083 2.10754 8.71893C2.11641 9.36739 2.12559 10.038 2.28496 10.6625C2.44572 11.2925 2.75484 11.7975 3.20368 12.1635C3.68927 12.5594 4.28199 12.7812 4.96561 12.8228C5.92855 12.8814 6.92012 12.9087 7.99671 12.9061ZM7.97065 10.418C6.08599 10.418 4.55255 8.88471 4.55255 7.00001C4.55255 5.11532 6.08599 3.58203 7.97065 3.58203C9.85541 3.58203 11.3887 5.11532 11.3887 7.00001C11.3887 8.88471 9.85541 10.418 7.97065 10.418ZM7.97065 4.67579C6.68907 4.67579 5.64634 5.71848 5.64634 7.00001C5.64634 8.28154 6.68907 9.32424 7.97065 9.32424C9.25233 9.32424 10.295 8.28154 10.295 7.00001C10.295 5.71848 9.25233 4.67579 7.97065 4.67579ZM11.7716 2.48828C11.3186 2.48828 10.9512 2.8555 10.9512 3.30859C10.9512 3.76169 11.3186 4.12891 11.7716 4.12891C12.2247 4.12891 12.5919 3.76169 12.5919 3.30859C12.5919 2.8555 12.2247 2.48828 11.7716 2.48828Z" fill="white"/>
</svg>
