<svg width="38" height="37" viewBox="0 0 38 37" fill="none" xmlns="http://www.w3.org/2000/svg">
<path d="M37.3667 22.3668H36.7333V20.4668C36.7333 20.2989 36.6666 20.1378 36.5478 20.019C36.4291 19.9002 36.268 19.8335 36.1 19.8335H33.5667C33.3987 19.8335 33.2376 19.9002 33.1188 20.019C33.0001 20.1378 32.9333 20.2989 32.9333 20.4668V22.3668H31.6667V16.6668C31.6667 16.4989 31.5999 16.3378 31.4812 16.219C31.3624 16.1002 31.2013 16.0335 31.0333 16.0335H30.4V14.1335C30.4 13.9655 30.3333 13.8044 30.2145 13.6857C30.0957 13.5669 29.9346 13.5002 29.7667 13.5002H27.2333C27.0654 13.5002 26.9043 13.5669 26.7855 13.6857C26.6667 13.8044 26.6 13.9655 26.6 14.1335V16.0335H25.3333V10.9668H31.0333C31.2013 10.9668 31.3624 10.9001 31.4812 10.7813C31.5999 10.6626 31.6667 10.5015 31.6667 10.3335V4.00016C31.6667 3.83219 31.5999 3.6711 31.4812 3.55233C31.3624 3.43356 31.2013 3.36683 31.0333 3.36683H30.4V1.46683C30.4 1.29886 30.3333 1.13777 30.2145 1.019C30.0957 0.900222 29.9346 0.833496 29.7667 0.833496H27.2333C27.0654 0.833496 26.9043 0.900222 26.7855 1.019C26.6667 1.13777 26.6 1.29886 26.6 1.46683V3.36683H24.0667V1.46683C24.0667 1.29886 23.9999 1.13777 23.8812 1.019C23.7624 0.900222 23.6013 0.833496 23.4333 0.833496H20.9C20.732 0.833496 20.5709 0.900222 20.4522 1.019C20.3334 1.13777 20.2667 1.29886 20.2667 1.46683V3.36683H19.6333C19.4654 3.36683 19.3043 3.43356 19.1855 3.55233C19.0667 3.6711 19 3.83219 19 4.00016V9.70016H17.7333V7.80016C17.7333 7.63219 17.6666 7.4711 17.5478 7.35233C17.4291 7.23356 17.268 7.16683 17.1 7.16683H14.5667C14.3987 7.16683 14.2376 7.23356 14.1188 7.35233C14.0001 7.4711 13.9333 7.63219 13.9333 7.80016V9.70016H11.4V7.80016C11.4 7.63219 11.3333 7.4711 11.2145 7.35233C11.0957 7.23356 10.9346 7.16683 10.7667 7.16683H8.23333C8.06536 7.16683 7.90427 7.23356 7.7855 7.35233C7.66673 7.4711 7.6 7.63219 7.6 7.80016V9.70016H6.96667C6.7987 9.70016 6.63761 9.76689 6.51883 9.88566C6.40006 10.0044 6.33333 10.1655 6.33333 10.3335V16.6668C6.33333 16.8348 6.40006 16.9959 6.51883 17.1147C6.63761 17.2334 6.7987 17.3002 6.96667 17.3002H12.6667V22.3668H11.4V20.4668C11.4 20.2989 11.3333 20.1378 11.2145 20.019C11.0957 19.9002 10.9346 19.8335 10.7667 19.8335H8.23333C8.06536 19.8335 7.90427 19.9002 7.7855 20.019C7.66673 20.1378 7.6 20.2989 7.6 20.4668V22.3668H5.06667V20.4668C5.06667 20.2989 4.99994 20.1378 4.88117 20.019C4.76239 19.9002 4.6013 19.8335 4.43333 19.8335H1.9C1.73203 19.8335 1.57094 19.9002 1.45217 20.019C1.33339 20.1378 1.26667 20.2989 1.26667 20.4668V22.3668H0.633333C0.465363 22.3668 0.304272 22.4336 0.185499 22.5523C0.066726 22.6711 0 22.8322 0 23.0002V35.6668C0 35.8348 0.066726 35.9959 0.185499 36.1147C0.304272 36.2334 0.465363 36.3002 0.633333 36.3002H4.43333C4.6013 36.3002 4.76239 36.2334 4.88117 36.1147C4.99994 35.9959 5.06667 35.8348 5.06667 35.6668C5.06667 34.491 5.53375 33.3634 6.36516 32.532C7.19657 31.7006 8.32421 31.2335 9.5 31.2335C10.6758 31.2335 11.8034 31.7006 12.6348 32.532C13.4663 33.3634 13.9333 34.491 13.9333 35.6668C13.9333 35.8348 14.0001 35.9959 14.1188 36.1147C14.2376 36.2334 14.3987 36.3002 14.5667 36.3002H18.3667C18.5346 36.3002 18.6957 36.2334 18.8145 36.1147C18.9333 35.9959 19 35.8348 19 35.6668V23.6335H25.3333V35.6668C25.3333 35.8348 25.4001 35.9959 25.5188 36.1147C25.6376 36.2334 25.7987 36.3002 25.9667 36.3002H37.3667C37.5346 36.3002 37.6957 36.2334 37.8145 36.1147C37.9333 35.9959 38 35.8348 38 35.6668V23.0002C38 22.8322 37.9333 22.6711 37.8145 22.5523C37.6957 22.4336 37.5346 22.3668 37.3667 22.3668ZM34.2 21.1002H35.4667V22.3668H34.2V21.1002ZM27.8667 14.7668H29.1333V16.0335H27.8667V14.7668ZM27.8667 2.10016H29.1333V3.36683H27.8667V2.10016ZM21.5333 2.10016H22.8V3.36683H21.5333V2.10016ZM20.2667 4.6335H30.4V9.70016H20.2667V4.6335ZM15.2 8.4335H16.4667V9.70016H15.2V8.4335ZM8.86667 8.4335H10.1333V9.70016H8.86667V8.4335ZM7.6 10.9668H24.0667V16.0335H7.6V10.9668ZM13.9333 17.3002H30.4V22.3668H13.9333V17.3002ZM8.86667 21.1002H10.1333V22.3668H8.86667V21.1002ZM2.53333 21.1002H3.8V22.3668H2.53333V21.1002ZM17.7333 35.0335H15.1645C15.0084 33.6404 14.3444 32.3537 13.2994 31.4193C12.2545 30.4849 10.9018 29.9684 9.5 29.9684C8.0982 29.9684 6.74555 30.4849 5.70058 31.4193C4.65561 32.3537 3.9916 33.6404 3.83547 35.0335H1.26667V26.1668H12.6667V24.9002H1.26667V23.6335H17.7333V35.0335ZM31.0333 23.6335H36.7333V28.7002H26.6V23.6335H31.0333ZM26.6 35.0335V29.9668H36.7333V35.0335H26.6Z" fill="#FF5C38"/>
<path d="M15.2003 24.9001H13.9336V26.1668H15.2003V24.9001Z" fill="#FF5C38"/>
</svg>
