<svg width="30" height="28" viewBox="0 0 30 28" fill="none" xmlns="http://www.w3.org/2000/svg">
<path d="M28.9381 16.6762H28.4476V15.2048C28.4476 15.0747 28.3959 14.9499 28.304 14.8579C28.212 14.766 28.0872 14.7143 27.9571 14.7143H25.9952C25.8652 14.7143 25.7404 14.766 25.6484 14.8579C25.5564 14.9499 25.5048 15.0747 25.5048 15.2048V16.6762H24.5238V12.2619C24.5238 12.1318 24.4721 12.0071 24.3802 11.9151C24.2882 11.8231 24.1634 11.7714 24.0333 11.7714H23.5429V10.3C23.5429 10.1699 23.4912 10.0452 23.3992 9.95318C23.3072 9.8612 23.1825 9.80953 23.0524 9.80953H21.0905C20.9604 9.80953 20.8356 9.8612 20.7437 9.95318C20.6517 10.0452 20.6 10.1699 20.6 10.3V11.7714H19.619V7.84762H24.0333C24.1634 7.84762 24.2882 7.79595 24.3802 7.70396C24.4721 7.61198 24.5238 7.48723 24.5238 7.35714V2.45238C24.5238 2.3223 24.4721 2.19754 24.3802 2.10556C24.2882 2.01358 24.1634 1.96191 24.0333 1.96191H23.5429V0.490476C23.5429 0.360394 23.4912 0.235639 23.3992 0.143657C23.3072 0.0516751 23.1825 0 23.0524 0H21.0905C20.9604 0 20.8356 0.0516751 20.7437 0.143657C20.6517 0.235639 20.6 0.360394 20.6 0.490476V1.96191H18.6381V0.490476C18.6381 0.360394 18.5864 0.235639 18.4944 0.143657C18.4025 0.0516751 18.2777 0 18.1476 0H16.1857C16.0556 0 15.9309 0.0516751 15.8389 0.143657C15.7469 0.235639 15.6952 0.360394 15.6952 0.490476V1.96191H15.2048C15.0747 1.96191 14.9499 2.01358 14.8579 2.10556C14.766 2.19754 14.7143 2.3223 14.7143 2.45238V6.86667H13.7333V5.39524C13.7333 5.26516 13.6817 5.1404 13.5897 5.04842C13.4977 4.95644 13.3729 4.90476 13.2429 4.90476H11.281C11.1509 4.90476 11.0261 4.95644 10.9341 5.04842C10.8422 5.1404 10.7905 5.26516 10.7905 5.39524V6.86667H8.82857V5.39524C8.82857 5.26516 8.7769 5.1404 8.68491 5.04842C8.59293 4.95644 8.46818 4.90476 8.3381 4.90476H6.37619C6.24611 4.90476 6.12135 4.95644 6.02937 5.04842C5.93739 5.1404 5.88571 5.26516 5.88571 5.39524V6.86667H5.39524C5.26516 6.86667 5.1404 6.91834 5.04842 7.01032C4.95644 7.10231 4.90476 7.22706 4.90476 7.35714V12.2619C4.90476 12.392 4.95644 12.5167 5.04842 12.6087C5.1404 12.7007 5.26516 12.7524 5.39524 12.7524H9.80952V16.6762H8.82857V15.2048C8.82857 15.0747 8.7769 14.9499 8.68491 14.8579C8.59293 14.766 8.46818 14.7143 8.3381 14.7143H6.37619C6.24611 14.7143 6.12135 14.766 6.02937 14.8579C5.93739 14.9499 5.88571 15.0747 5.88571 15.2048V16.6762H3.92381V15.2048C3.92381 15.0747 3.87213 14.9499 3.78015 14.8579C3.68817 14.766 3.56342 14.7143 3.43333 14.7143H1.47143C1.34135 14.7143 1.21659 14.766 1.12461 14.8579C1.03263 14.9499 0.980952 15.0747 0.980952 15.2048V16.6762H0.490476C0.360394 16.6762 0.235639 16.7279 0.143657 16.8199C0.051675 16.9118 0 17.0366 0 17.1667V26.9762C0 27.1063 0.051675 27.231 0.143657 27.323C0.235639 27.415 0.360394 27.4667 0.490476 27.4667H3.43333C3.56342 27.4667 3.68817 27.415 3.78015 27.323C3.87213 27.231 3.92381 27.1063 3.92381 26.9762C3.92381 26.0656 4.28553 25.1923 4.92941 24.5485C5.57328 23.9046 6.44657 23.5429 7.35714 23.5429C8.26772 23.5429 9.141 23.9046 9.78488 24.5485C10.4288 25.1923 10.7905 26.0656 10.7905 26.9762C10.7905 27.1063 10.8422 27.231 10.9341 27.323C11.0261 27.415 11.1509 27.4667 11.281 27.4667H14.2238C14.3539 27.4667 14.4786 27.415 14.5706 27.323C14.6626 27.231 14.7143 27.1063 14.7143 26.9762V17.6571H19.619V26.9762C19.619 27.1063 19.6707 27.231 19.7627 27.323C19.8547 27.415 19.9794 27.4667 20.1095 27.4667H28.9381C29.0682 27.4667 29.1929 27.415 29.2849 27.323C29.3769 27.231 29.4286 27.1063 29.4286 26.9762V17.1667C29.4286 17.0366 29.3769 16.9118 29.2849 16.8199C29.1929 16.7279 29.0682 16.6762 28.9381 16.6762ZM26.4857 15.6952H27.4667V16.6762H26.4857V15.6952ZM21.581 10.7905H22.5619V11.7714H21.581V10.7905ZM21.581 0.980953H22.5619V1.96191H21.581V0.980953ZM16.6762 0.980953H17.6571V1.96191H16.6762V0.980953ZM15.6952 2.94286H23.5429V6.86667H15.6952V2.94286ZM11.7714 5.88572H12.7524V6.86667H11.7714V5.88572ZM6.86667 5.88572H7.84762V6.86667H6.86667V5.88572ZM5.88571 7.84762H18.6381V11.7714H5.88571V7.84762ZM10.7905 12.7524H23.5429V16.6762H10.7905V12.7524ZM6.86667 15.6952H7.84762V16.6762H6.86667V15.6952ZM1.9619 15.6952H2.94286V16.6762H1.9619V15.6952ZM13.7333 26.4857H11.744C11.623 25.4069 11.1088 24.4104 10.2996 23.6868C9.49029 22.9631 8.44275 22.5631 7.35714 22.5631C6.27153 22.5631 5.224 22.9631 4.41473 23.6868C3.60547 24.4104 3.09124 25.4069 2.97032 26.4857H0.980952V19.6191H9.80952V18.6381H0.980952V17.6571H13.7333V26.4857ZM24.0333 17.6571H28.4476V21.581H20.6V17.6571H24.0333ZM20.6 26.4857V22.5619H28.4476V26.4857H20.6Z" fill="white"/>
<path d="M11.7715 18.6381H10.7905V19.6191H11.7715V18.6381Z" fill="white"/>
</svg>
