<svg width="175" height="41" viewBox="0 0 175 41" fill="none" xmlns="http://www.w3.org/2000/svg">
<path d="M1.606 24H5.368V11.636H11.396V8.424H1.606V24ZM13.581 24.264C14.879 24.264 16.133 23.736 16.683 22.834H16.749V24H20.049V18.478C20.049 14.496 18.685 12.692 15.011 12.692C13.229 12.692 11.403 13.33 10.127 14.54L11.953 16.498C12.613 15.882 13.625 15.376 14.659 15.376C15.781 15.376 16.639 15.882 16.639 16.96V17.136C13.449 17.136 9.59905 17.664 9.59905 20.832C9.59905 23.406 11.843 24.264 13.581 24.264ZM14.483 21.844C13.757 21.844 12.921 21.558 12.921 20.722C12.921 19.424 14.703 19.226 16.287 19.226H16.749V19.6C16.749 20.964 15.935 21.844 14.483 21.844ZM22.742 29.28H26.35V22.79H26.394C27.076 23.736 28.374 24.308 29.716 24.308C33.016 24.308 34.93 21.536 34.93 18.478C34.93 15.42 32.928 12.736 29.738 12.736C28.132 12.736 26.9 13.506 26.24 14.386H26.174V13.044H22.742V29.28ZM28.858 21.316C27.23 21.316 26.218 19.93 26.218 18.5C26.218 17.114 27.23 15.684 28.858 15.684C30.574 15.684 31.432 17.07 31.432 18.478C31.432 19.908 30.574 21.316 28.858 21.316ZM35.7552 26.75H38.7032V24H46.6672V26.75H49.6152V21.206H48.0972V13.044H38.1312V15.838C38.1312 18.764 37.5592 20.238 36.7892 21.206H35.7552V26.75ZM40.5072 21.206C41.0792 20.26 41.5192 18.962 41.5192 16.74V15.816H44.4672V21.206H40.5072ZM56.8372 24.352C59.0592 24.352 60.7752 23.516 61.8092 22.02L59.3012 20.436C58.8172 21.096 58.0252 21.58 56.8812 21.58C55.5832 21.58 54.3732 20.722 54.2632 19.512H62.2052C62.2272 19.248 62.2272 18.94 62.2272 18.654C62.2272 14.914 59.9612 12.692 56.7272 12.692C53.4052 12.692 50.8092 14.98 50.8092 18.566C50.8092 22.262 53.5372 24.352 56.8372 24.352ZM54.2632 17.268C54.3512 16.146 55.3632 15.178 56.7492 15.178C58.1792 15.178 58.9052 16.124 58.9052 17.268H54.2632ZM64.4646 29.28H68.0726V22.79H68.1166C68.7986 23.736 70.0966 24.308 71.4386 24.308C74.7386 24.308 76.6526 21.536 76.6526 18.478C76.6526 15.42 74.6506 12.736 71.4606 12.736C69.8546 12.736 68.6226 13.506 67.9626 14.386H67.8966V13.044H64.4646V29.28ZM70.5806 21.316C68.9526 21.316 67.9406 19.93 67.9406 18.5C67.9406 17.114 68.9526 15.684 70.5806 15.684C72.2966 15.684 73.1546 17.07 73.1546 18.478C73.1546 19.908 72.2966 21.316 70.5806 21.316ZM84.4456 24.352C87.7676 24.352 90.5396 22.064 90.5396 18.478C90.5396 14.892 87.7676 12.692 84.4456 12.692C81.1456 12.692 78.3736 14.892 78.3736 18.478C78.3736 22.064 81.1456 24.352 84.4456 24.352ZM84.4676 21.316C82.7736 21.316 81.8716 19.886 81.8716 18.478C81.8716 17.07 82.7516 15.684 84.4456 15.684C86.1396 15.684 87.0636 17.07 87.0636 18.478C87.0636 19.886 86.1616 21.316 84.4676 21.316ZM98.61 24.352C102.02 24.352 104.704 22.152 104.704 18.588C104.704 15.046 102.13 12.978 99.292 12.978C97.224 12.978 95.794 13.814 94.98 15.222H94.936C95.112 11.966 96.564 11.526 98.456 11.262L101.25 10.888C103.12 10.646 104.132 9.832 104.572 7.676L102.02 6.95C101.822 7.632 101.404 7.83 100.04 8.006L97.664 8.314C93.088 8.908 92.472 12.23 92.472 17.246C92.472 19.974 92.978 21.514 94.342 22.768C95.42 23.758 96.85 24.352 98.61 24.352ZM98.632 21.316C96.938 21.316 96.036 19.886 96.036 18.478C96.036 17.07 96.916 15.684 98.61 15.684C100.304 15.684 101.228 17.07 101.228 18.478C101.228 19.886 100.326 21.316 98.632 21.316ZM106.982 24H110.612V19.05H110.678L114.418 24H118.84L114.352 18.17L118.642 13.044H114.264L110.678 17.686H110.612V13.044H106.982V24ZM120.152 24H124.068L127.808 17.774H127.874V24H131.394V13.044H127.566L123.76 19.424H123.716V13.044H120.152V24ZM134.203 24H137.833V19.688H141.397V24H145.027V13.044H141.397V16.916H137.833V13.044H134.203V24Z" fill="white"/>
<path d="M151.96 22.064C151.96 20.854 150.948 19.908 149.76 19.908C148.528 19.908 147.516 20.898 147.516 22.086C147.516 23.296 148.55 24.22 149.76 24.22C150.948 24.22 151.96 23.274 151.96 22.064Z" fill="#FF7E61"/>
<path d="M153.73 20H155.44V17.33H156.29C157.77 17.33 159.1 16.74 159.1 15.1C159.1 13.48 157.88 12.92 156.33 12.92H153.73V20ZM155.44 15.97V14.3H156.19C156.8 14.3 157.39 14.43 157.39 15.11C157.39 15.78 156.8 15.97 156.16 15.97H155.44ZM163.066 20.19H164.776V19.33C166.726 19.31 168.106 18.1 168.106 16.35C168.106 14.46 166.816 13.44 164.776 13.37V12.73H163.066V13.37C161.016 13.44 159.746 14.47 159.746 16.35C159.746 18.12 161.126 19.31 163.066 19.33V20.19ZM163.066 17.88C161.946 17.76 161.496 17.22 161.496 16.36C161.496 15.53 161.946 14.92 163.066 14.82V17.88ZM164.776 17.88V14.82C165.896 14.92 166.346 15.53 166.346 16.36C166.346 17.22 165.896 17.76 164.776 17.88Z" fill="white"/>
</svg>
