<svg width="37" height="37" viewBox="0 0 37 37" fill="none" xmlns="http://www.w3.org/2000/svg">
<path d="M37 12.2554C37 10.7628 35.7856 9.54839 34.293 9.54839C33.5703 9.54839 32.89 9.83006 32.3792 10.3415L30.6103 12.1103L28.6452 14.0755V8.3071C30.6664 8.01587 32.2258 6.27747 32.2258 4.17742C32.2258 1.87387 30.3519 0 28.0484 0H4.17742C1.87387 0 0 1.87387 0 4.17742V34.0161C0 34.3456 0.267355 34.6129 0.596774 34.6129H3.58065V36.4032C3.58065 36.7326 3.848 37 4.17742 37H28.0484C28.3778 37 28.6452 36.7326 28.6452 36.4032V21.7309L34.438 15.938L35.0509 15.3252C34.7418 16.8648 33.9881 18.2804 32.853 19.416L30.0142 22.2549L30.858 23.0987L33.6969 20.2599C35.3905 18.5662 36.3376 16.3295 36.3931 13.943C36.7792 13.4644 37 12.8796 37 12.2554ZM33.223 11.1853C33.5089 10.8995 33.889 10.7419 34.293 10.7419C35.1273 10.7419 35.8065 11.4211 35.8065 12.2554C35.8065 12.6594 35.6489 13.0395 35.363 13.3254L34.0161 14.6723L31.8761 12.5323L33.223 11.1853ZM31.0323 13.3761L31.6804 14.0242L24.1694 21.5352L23.5213 20.8871L31.0323 13.3761ZM16.8392 29.1244L18.0667 26.6686L19.8797 28.4816L17.424 29.7092L16.8392 29.1244ZM18.7471 25.6613L22.6774 21.7309L24.8175 23.871L20.8871 27.8013L18.7471 25.6613ZM28.0484 1.19355C29.6937 1.19355 31.0323 2.53211 31.0323 4.17742C31.0323 5.82273 29.6937 7.16129 28.0484 7.16129H7.09565C7.87145 6.40219 8.35484 5.3459 8.35484 4.17742C8.35484 3.00894 7.87145 1.95265 7.09565 1.19355H28.0484ZM4.77419 7.10102V5.37097C4.77419 5.04215 5.04215 4.77419 5.37097 4.77419H7.10102C6.8629 5.94148 5.94148 6.8629 4.77419 7.10102ZM1.19355 33.4194V4.17742C1.19355 2.53211 2.53211 1.19355 4.17742 1.19355C5.61803 1.19355 6.82352 2.2206 7.10102 3.58065H5.37097C4.3839 3.58065 3.58065 4.3839 3.58065 5.37097V33.4194H1.19355ZM27.4516 35.8065H4.77419V8.35484H27.4516V15.2691L24.8175 17.9032H7.16129V19.0968H23.6239L22.4304 20.2903H7.16129V21.4839H21.2368L17.4813 25.2394C17.4348 25.2859 17.4043 25.3414 17.3763 25.3975L17.3697 25.3939L15.5794 28.9746C15.4648 29.2043 15.5096 29.4818 15.6916 29.6633L15.8658 29.8387L14.4974 31.2071L15.3413 32.051L16.7097 30.6826L16.8845 30.8574C16.9991 30.972 17.1519 31.0323 17.3065 31.0323C17.3966 31.0323 17.4885 31.0114 17.5732 30.9696L21.1539 29.1793L21.1503 29.1727C21.2064 29.1447 21.2619 29.1142 21.3084 29.0677L26.0826 24.2935L27.4516 22.9245V35.8065ZM25.6613 23.0271L25.0132 22.379L32.5242 14.868L33.1723 15.5161L25.6613 23.0271Z" fill="#FF5C38"/>
<path d="M7.16113 10.7421H25.0644V11.9356H7.16113V10.7421Z" fill="#FF5C38"/>
<path d="M7.16113 13.129H25.0644V14.3226H7.16113V13.129Z" fill="#FF5C38"/>
<path d="M7.16113 15.5161H25.0644V16.7097H7.16113V15.5161Z" fill="#FF5C38"/>
<path d="M7.16113 29.8386H13.7256V31.0322H7.16113V29.8386Z" fill="#FF5C38"/>
<path d="M7.16113 32.2258H25.0644V33.4194H7.16113V32.2258Z" fill="#FF5C38"/>
</svg>
