<svg width="8" height="8" viewBox="0 0 8 8" fill="none" xmlns="http://www.w3.org/2000/svg">
<path d="M6.67367 4.98444C6.39033 4.70471 6.0366 4.70471 5.75506 4.98444C5.5403 5.19739 5.32553 5.41034 5.11438 5.62691C5.05662 5.68646 5.0079 5.6991 4.93751 5.65939C4.79855 5.58359 4.65056 5.52224 4.51701 5.43922C3.89437 5.0476 3.3728 4.54409 2.91079 3.97742C2.68158 3.69589 2.47765 3.3945 2.33507 3.05522C2.3062 2.98664 2.31161 2.94152 2.36756 2.88558C2.58232 2.67804 2.79167 2.46508 3.00283 2.25213C3.297 1.95616 3.297 1.60966 3.00102 1.31189C2.83318 1.14224 2.66534 0.976213 2.4975 0.806571C2.32424 0.633321 2.15279 0.458265 1.97773 0.28682C1.69439 0.0107015 1.34066 0.0107015 1.05912 0.288624C0.842551 0.501578 0.635005 0.719946 0.414827 0.92929C0.210891 1.12239 0.10802 1.35881 0.0863634 1.63493C0.0520733 2.08429 0.162163 2.5084 0.31737 2.92167C0.635005 3.7771 1.11868 4.53687 1.70522 5.23348C2.4975 6.17553 3.44318 6.92087 4.54949 7.45867C5.0476 7.7005 5.56376 7.88638 6.12503 7.91706C6.51125 7.93872 6.84693 7.84127 7.11584 7.53988C7.29992 7.33415 7.50746 7.14646 7.70238 6.94975C7.99114 6.65739 7.99294 6.30367 7.70599 6.01492C7.36309 5.67022 7.01838 5.32733 6.67367 4.98444Z" fill="#FF5C38"/>
</svg>
