<svg width="51" height="51" viewBox="0 0 51 51" fill="none" xmlns="http://www.w3.org/2000/svg">
<path d="M47.9439 42.3379C47.9439 42.3379 9.163 42.322 9.15543 42.3222C8.39222 42.3122 7.98004 42.3701 6.96422 42.8239L0.685145 45.626C0.264295 45.8122 0.00301999 46.2111 0.00341842 46.6668C0.00381686 47.1177 0.271866 47.5271 0.682157 47.7078C2.74148 48.6296 6.96392 50.5139 6.96392 50.5139C7.9146 50.9384 8.32668 50.986 9.00213 50.986L24.2029 51C24.6155 51 24.95 50.6655 24.95 50.2529C24.95 49.8403 24.6155 49.5059 24.2029 49.5059C24.2029 49.5059 9.98647 49.5063 9.92491 49.5068V47.416H42.934V49.5059H27.9125C27.4998 49.5059 27.1654 49.8403 27.1654 50.2529C27.1654 50.6655 27.4998 51 27.9125 51H47.944C49.6291 51 51.0001 49.6314 51.0001 47.9492V45.3887C51 43.7065 49.629 42.3379 47.9439 42.3379ZM4.33842 45.6318V47.705C3.56445 47.3594 2.79129 47.0145 2.01652 46.668L4.33842 45.6318ZM5.83256 48.3723V44.9651C5.83256 44.9651 8.20844 43.9197 8.43077 43.8686V49.4694C8.20844 49.4183 6.37792 48.6157 5.83256 48.3723ZM9.92501 45.9219V43.8311C9.98657 43.8316 10.0499 43.832 10.1172 43.832H42.9341V45.9219H9.92501ZM49.5059 47.9492C49.5059 48.8076 48.8053 49.5059 47.9439 49.5059H44.4281V43.8319H47.9439C48.8052 43.8319 49.5059 44.5303 49.5059 45.3886V47.9492Z" fill="#FF7E61"/>
<path d="M1.28387 39.8713L24.094 39.8685C24.5066 39.8685 24.8411 39.534 24.841 39.1214C24.8409 38.7088 24.5064 38.3743 24.0938 38.3744L1.49414 38.3771V7.89084H4.48093V32.8653C4.48093 33.5434 5.03296 34.0949 5.7116 34.0949H36.6898C37.2018 34.0949 37.6469 33.8185 37.8239 33.3908C38.0003 32.9641 37.8835 32.4877 37.5111 32.1161L13.234 7.89084H40.7117V31.5796C40.7117 32.2775 41.28 32.8454 41.9787 32.8454H45.2717C46.8004 32.8454 48.044 34.0855 48.044 35.6098C48.044 37.1342 46.8004 38.3743 45.2717 38.3743H27.5238C27.1111 38.3743 26.7767 38.7088 26.7767 39.1214C26.7767 39.534 27.1111 39.8684 27.5238 39.8684H45.2716C47.6241 39.8684 49.5381 37.958 49.5381 35.6098V7.60127C49.5381 5.25149 47.6241 3.33988 45.2716 3.33988H41.9786C41.2799 3.33988 40.7116 3.90646 40.7116 4.60293V6.3968H11.7366L6.46017 1.13154C6.08683 0.759002 5.60841 0.643754 5.18019 0.823051C4.75187 1.00255 4.47734 1.4482 4.48093 1.95322V6.3967H1.28377C0.575942 6.3967 0 6.97333 0 7.68216V38.586C0 39.2946 0.575942 39.8713 1.28387 39.8713ZM42.2058 4.83392H45.2716C46.8003 4.83392 48.0439 6.07526 48.0439 7.60117V32.3752C47.2977 31.737 46.3289 31.3511 45.2716 31.3511H42.2058V4.83392ZM5.97507 2.75836L35.881 32.6008H29.4756V31.5517C29.4756 31.1391 29.1412 30.8046 28.7285 30.8046C28.3159 30.8046 27.9815 31.1391 27.9815 31.5517V32.6008H24.7766V30.5643C24.7766 30.1518 24.4422 29.8173 24.0296 29.8173C23.617 29.8173 23.2825 30.1518 23.2825 30.5643V32.6008H20.0748V31.5517C20.0748 31.1391 19.7403 30.8046 19.3277 30.8046C18.9151 30.8046 18.5806 31.1391 18.5806 31.5517V32.6008H15.3758V30.5643C15.3758 30.1518 15.0413 29.8173 14.6287 29.8173C14.2162 29.8173 13.8817 30.1518 13.8817 30.5643V32.6008H10.6741V31.5517C10.6741 31.1391 10.3397 30.8046 9.92707 30.8046C9.51449 30.8046 9.18 31.1391 9.18 31.5517V32.6008H5.97507V2.75836Z" fill="#FF7E61"/>
<path d="M12.398 27.1639H20.6751C20.987 27.1639 21.5676 27.1639 21.7899 26.6265C22.0086 26.0978 21.6269 25.717 21.348 25.4389L13.1541 17.2632C12.8758 16.9833 12.4945 16.6001 11.9651 16.8184C11.4272 17.0405 11.4272 17.6206 11.4272 17.9323V26.1937C11.4273 26.7831 11.8084 27.1639 12.398 27.1639ZM12.9215 19.1416L19.4641 25.6697H12.9215V19.1416Z" fill="#FF7E61"/>
</svg>
