<svg width="37" height="48" viewBox="0 0 37 48" fill="none" xmlns="http://www.w3.org/2000/svg">
<path d="M36.2087 35.6902C36.5897 35.6902 36.8986 35.3813 36.8986 35.0003V18.443C36.8986 17.6195 36.5777 16.7772 35.995 16.0712L30.8785 9.87195C30.6104 9.54715 30.3023 9.2734 29.9676 9.0554C29.9881 8.84457 29.9998 8.63162 29.9998 8.41665V0.68989C29.9998 0.308887 29.6909 0 29.3099 0C28.9289 0 28.62 0.308887 28.62 0.68989C28.62 0.68989 28.6187 8.48242 28.6181 8.51535C28.4218 8.48058 28.2226 8.46265 28.0221 8.46265H19.0996C18.4714 8.46265 17.8556 8.63889 17.3044 8.96277C17.2806 8.97132 17.2569 8.98089 17.2337 8.99221L10.5086 12.268C9.76352 12.6417 9.16773 13.2686 8.83079 14.0331C8.82711 14.0415 8.82362 14.0498 8.8203 14.0583L6.03977 21.111C5.90005 21.4655 6.07408 21.8661 6.42859 22.0059C6.51166 22.0387 6.5972 22.0541 6.68146 22.0541C6.9565 22.0541 7.21645 21.8885 7.32343 21.6171L10.0985 14.578C10.3072 14.1117 10.6722 13.7297 11.12 13.5049L14.6732 11.7742L11.1267 16.0713C10.5956 16.7146 10.315 17.5349 10.315 18.4431V42.2673C10.315 42.5448 10.3393 42.8164 10.3836 43.0811L3.27479 39.9312C1.66891 39.2197 0.94112 37.3297 1.65272 35.7181C1.65575 35.7111 1.6587 35.704 1.66164 35.697L7.32343 21.6171C7.46564 21.2636 7.29445 20.8618 6.94095 20.7195C6.58727 20.5773 6.18566 20.7486 6.04336 21.102L0.385529 35.1715C-0.624654 37.4757 0.418827 40.1748 2.71579 41.1925L11.0519 44.8862C11.0621 44.8908 11.0725 44.8941 11.0828 44.898C11.9289 46.22 13.3916 47.0964 15.0522 47.0964H32.0695C34.6872 47.0964 36.8987 44.8849 36.8987 42.2671V35.0003C36.8987 34.6193 36.5898 34.3104 36.2088 34.3104C35.8278 34.3104 35.5189 34.6193 35.5189 35.0003V42.2671C35.5189 44.1369 33.9393 45.7166 32.0695 45.7166H15.0522C13.2009 45.7166 11.6948 44.1692 11.6948 42.2671V18.443C11.6948 17.8508 11.8616 17.3482 12.1908 16.9495L17.3073 10.7502C17.7835 10.1733 18.4368 9.84233 19.0996 9.84233H28.0221C28.1521 9.84233 28.2816 9.85549 28.4096 9.88032C27.9777 11.3531 26.9079 12.582 25.4633 13.1979C25.0855 12.566 24.3949 12.142 23.6068 12.142C22.4148 12.142 21.4451 13.1117 21.4451 14.3036C21.4451 15.4956 22.4148 16.4653 23.6068 16.4653C24.709 16.4653 25.6206 15.6357 25.7517 14.5683C27.6097 13.8655 29.0147 12.3764 29.6406 10.5589C29.7007 10.6193 29.7588 10.6829 29.8144 10.7502L34.9309 16.9496C35.31 17.409 35.5189 17.9393 35.5189 18.4431V35.0003C35.5188 35.3812 35.8277 35.6902 36.2087 35.6902ZM23.6068 15.0855C23.1756 15.0855 22.8249 14.7348 22.8249 14.3036C22.8249 13.8725 23.1756 13.5217 23.6068 13.5217C24.0379 13.5217 24.3886 13.8725 24.3886 14.3036C24.3886 14.7348 24.0379 15.0855 23.6068 15.0855Z" fill="#FF5C38"/>
<path d="M17.6279 36.702C17.8045 36.702 17.9811 36.6346 18.1157 36.4999L29.8899 24.7258C30.1593 24.4563 30.1593 24.0195 29.8899 23.7502C29.6204 23.4807 29.1836 23.4807 28.9143 23.7502L17.1401 35.5243C16.7003 35.9343 17.0378 36.7228 17.6279 36.702Z" fill="#FF5C38"/>
<path d="M19.0996 29.4352C20.748 29.4352 22.0891 28.0941 22.0891 26.4457C22.0891 24.7973 20.748 23.4562 19.0996 23.4562H19.0076C17.3592 23.4562 16.0181 24.7973 16.0181 26.4457C16.0181 28.0941 17.3592 29.4352 19.0076 29.4352H19.0996ZM17.3978 26.4457C17.3978 25.5581 18.12 24.836 19.0076 24.836H19.0996C19.9871 24.836 20.7093 25.5581 20.7093 26.4457C20.7093 27.3333 19.9871 28.0554 19.0996 28.0554H19.0076C18.12 28.0554 17.3978 27.3333 17.3978 26.4457Z" fill="#FF5C38"/>
<path d="M28.0222 36.7021H28.1142C29.7626 36.7021 31.1037 35.3609 31.1037 33.7125C31.1037 32.0642 29.7626 30.723 28.1142 30.723H28.0222C26.3739 30.723 25.0327 32.0642 25.0327 33.7125C25.0327 35.3609 26.3739 36.7021 28.0222 36.7021ZM28.0222 32.1028H28.1142C29.0018 32.1028 29.724 32.825 29.724 33.7125C29.724 34.6001 29.0018 35.3223 28.1142 35.3223H28.0222C27.1347 35.3223 26.4125 34.6001 26.4125 33.7125C26.4125 32.825 27.1347 32.1028 28.0222 32.1028Z" fill="#FF5C38"/>
</svg>
