<svg width="36" height="52" viewBox="0 0 36 52" fill="none" xmlns="http://www.w3.org/2000/svg">
<path d="M0 51.4286H36V0H0V51.4286ZM1.71429 1.71429H34.2857V49.7143H1.71429V1.71429Z" fill="#FF8F76"/>
<path d="M14.5713 16.8859V24.6856L17.9999 22.3715L21.4285 24.6856V16.8859C24.1715 15 24.857 11.2287 22.8858 8.57143C20.9999 5.82841 17.2285 5.14286 14.5713 7.11412C11.9141 9.0858 11.1427 12.7713 13.114 15.4286C13.4572 16.0287 13.9711 16.5427 14.5713 16.8859ZM19.7142 21.5144L17.9999 20.3998L16.2856 21.5144V17.743C17.3997 18.0858 18.6 18.0858 19.7142 17.743V21.5144ZM17.9999 7.71429C20.3997 7.71429 22.2856 9.60017 22.2856 12C22.2856 14.3998 20.3997 16.2857 17.9999 16.2857C15.6 16.2857 13.7142 14.3998 13.7142 12C13.7142 9.60017 15.6 7.71429 17.9999 7.71429Z" fill="#FF8F76"/>
<path d="M11.1431 27.4286H24.8574V29.1429H11.1431V27.4286Z" fill="#FF8F76"/>
<path d="M6.85693 30.8571H29.1426V32.5714H6.85693V30.8571Z" fill="#FF8F76"/>
<path d="M6.85693 34.2857H29.1426V36H6.85693V34.2857Z" fill="#FF8F76"/>
<path d="M6.85693 37.7143H29.1426V39.4286H6.85693V37.7143Z" fill="#FF8F76"/>
<path d="M10.2856 42H15.4285V43.7143H10.2856V42Z" fill="#FF8F76"/>
<path d="M20.5713 42H25.7141V43.7143H20.5713V42Z" fill="#FF8F76"/>
<path d="M30.0001 5.14286V3.42857H6.00014V5.14286C6.00014 5.65723 5.65737 6 5.143 6H3.42871V45.4286H5.143C5.65737 45.4286 6.00014 45.7713 6.00014 46.2857V48H30.0001V46.2857C30.0001 45.7713 30.3429 45.4286 30.8573 45.4286H32.5716V6H30.8573C30.3429 6 30.0001 5.65723 30.0001 5.14286ZM30.8573 43.7143C29.4 43.7143 28.2859 44.8284 28.2859 46.2857H7.71443C7.71443 44.8284 6.60031 43.7143 5.143 43.7143V7.71429C6.60031 7.71429 7.71443 6.60017 7.71443 5.14286H28.2859C28.2859 6.60017 29.4 7.71429 30.8573 7.71429V43.7143Z" fill="#FF8F76"/>
</svg>
