<svg width="43" height="40" viewBox="0 0 43 40" fill="none" xmlns="http://www.w3.org/2000/svg">
<path d="M38.2309 11.7924L39.0936 10.7887L39.9344 11.5117C40.0476 11.609 40.1917 11.6621 40.34 11.6621C40.3556 11.6621 40.3712 11.6615 40.3868 11.6603C40.5513 11.6479 40.7042 11.5706 40.8118 11.4455L42.1475 9.89181C42.3715 9.63126 42.3419 9.23849 42.0813 9.01453L37.4873 5.06494C37.3621 4.95735 37.1995 4.90327 37.0349 4.91629C36.8704 4.92865 36.7175 5.00596 36.6099 5.13105L35.2742 6.6847C35.0502 6.94525 35.0798 7.33802 35.3404 7.56199L36.1812 8.2849L35.2524 9.36524C33.3498 8.15002 31.1847 7.31106 28.8627 6.95479V5.07497H31.0053C32.0054 5.07497 32.8189 4.2614 32.8189 3.26135V1.81387C32.8189 0.81382 32.0053 0.000244141 31.0053 0.000244141H21.6582C20.6582 0.000244141 19.8446 0.81382 19.8446 1.81387V3.26135C19.8446 4.2614 20.6582 5.07497 21.6582 5.07497H23.8009V6.95479C21.4331 7.31811 19.2288 8.18378 17.2993 9.43799L16.308 8.2849L17.1488 7.56199C17.2739 7.4544 17.3511 7.30152 17.3636 7.13703C17.3759 6.97254 17.3225 6.80979 17.2149 6.68462L15.8792 5.13096C15.6551 4.8705 15.2624 4.8408 15.0018 5.06485L10.4079 9.01444C10.2828 9.12203 10.2056 9.27491 10.1931 9.4394C10.1808 9.60389 10.2342 9.76664 10.3418 9.89181L11.6775 11.4455C11.8005 11.5886 11.9746 11.662 12.1495 11.662C12.2931 11.662 12.4374 11.6125 12.5548 11.5116L13.3956 10.7887L14.3401 11.8873C13.5227 12.7398 12.7953 13.6792 12.1728 14.6897C12.1518 14.6876 12.1305 14.6865 12.1088 14.6865H8.18008C7.8365 14.6865 7.55795 14.965 7.55795 15.3086C7.55795 15.6522 7.8365 15.9308 8.18008 15.9308H11.4798C11.1522 16.5811 10.8662 17.2556 10.625 17.9511H4.33915C3.99557 17.9511 3.71702 18.2296 3.71702 18.5732C3.71702 18.9168 3.99557 19.1953 4.33915 19.1953H10.2474C10.0227 20.0577 9.86679 20.9473 9.78359 21.8578H1.38189C1.03831 21.8578 0.759766 22.1363 0.759766 22.4799C0.759766 22.8235 1.03831 23.102 1.38189 23.102H9.71665C9.71507 23.195 9.71308 23.2879 9.71308 23.3813C9.71308 24.1904 9.77239 24.9859 9.8847 25.7645H3.7585C3.41492 25.7645 3.13637 26.043 3.13637 26.3866C3.13637 26.7302 3.41492 27.0088 3.7585 27.0088H10.113C10.2673 27.6992 10.4643 28.3737 10.7018 29.029H7.59942C7.25585 29.029 6.9773 29.3076 6.9773 29.6511C6.9773 29.9947 7.25585 30.2733 7.59942 30.2733H11.2111C13.8348 36.0067 19.6255 40 26.3319 40C29.8346 40 33.1848 38.923 36.0202 36.8854C36.2991 36.6849 36.3628 36.2961 36.1623 36.0171C35.9616 35.738 35.573 35.6746 35.294 35.8751C32.6715 37.7597 29.5724 38.7558 26.3319 38.7558C17.8543 38.7558 10.9573 31.8589 10.9573 23.3813C10.9573 14.9037 17.8543 8.00677 26.3319 8.00677C30.4357 8.00677 34.1691 9.62305 36.9291 12.2524C36.9348 12.2584 36.9411 12.2639 36.947 12.2697C39.878 15.0709 41.7064 19.0166 41.7064 23.3813C41.7064 27.493 40.1038 31.3573 37.1937 34.2623C36.9505 34.505 36.9502 34.8989 37.193 35.1421C37.4357 35.3852 37.8296 35.3856 38.0728 35.1429C41.2183 32.0028 42.9506 27.8258 42.9506 23.3813C42.9506 18.8781 41.1495 14.7884 38.2309 11.7924ZM37.1479 6.41396L40.7985 9.55238L40.2739 10.1625L36.6234 7.02405L37.1479 6.41396ZM37.1248 9.09607L38.1502 9.97758L37.3289 10.9328C36.9913 10.6342 36.6421 10.3484 36.2809 10.0775L37.1248 9.09607ZM23.5805 3.83072V1.2445H24.5852V3.83072H23.5805ZM25.8295 1.2445H26.8342V3.83072H25.8295V1.2445ZM28.0784 3.83072V1.2445H29.0832V3.83072H28.0784ZM31.5748 1.81387V3.26135C31.5748 3.57532 31.3194 3.83072 31.0055 3.83072H30.3275V1.2445H31.0055C31.3194 1.2445 31.5748 1.4999 31.5748 1.81387ZM21.089 3.26135V1.81387C21.089 1.4999 21.3444 1.2445 21.6583 1.2445H22.3363V3.83072H21.6583C21.3444 3.83072 21.089 3.57532 21.089 3.26135ZM12.2154 10.1626L11.6908 9.55246L15.3412 6.41404L15.8658 7.02414L15.0251 7.74696C15.0251 7.74696 15.025 7.74705 15.025 7.74705L13.0561 9.43973C13.0561 9.43981 13.0561 9.43981 13.056 9.4399L12.2154 10.1626ZM14.3577 9.96157L15.3644 9.09607L16.2776 10.1582C15.9187 10.4318 15.571 10.7194 15.2358 11.0207L14.339 9.97766L14.3577 9.96157ZM25.0452 6.81178V5.07497H27.6185V6.81187C27.1938 6.77918 26.7647 6.76243 26.3318 6.76243C25.8989 6.76243 25.4699 6.77918 25.0452 6.81178Z" fill="#FF5C38"/>
<path d="M21.1217 12.047C20.9625 11.7425 20.5865 11.6247 20.2821 11.7838C16.4998 13.7608 13.9129 17.4645 13.3621 21.6912C12.4301 28.8428 17.4903 35.4194 24.6419 36.3512C25.2133 36.4257 25.7798 36.4619 26.3412 36.4618C32.8071 36.4612 38.4444 31.6517 39.3019 25.0714C39.7534 21.607 38.8287 18.1742 36.6981 15.4052C34.5676 12.6363 31.4865 10.8628 28.022 10.4113C26.3318 10.191 24.6461 10.2972 23.0115 10.7267C22.6792 10.8141 22.4806 11.1543 22.5679 11.4866C22.6552 11.8189 22.9956 12.0173 23.3277 11.9302C24.1106 11.7245 24.9068 11.6016 25.7098 11.5604V13.1949C25.7098 13.5385 25.9883 13.8171 26.3319 13.8171C26.6756 13.8171 26.9541 13.5385 26.9541 13.1949V11.5619C27.2561 11.5782 27.5585 11.6056 27.8613 11.645C30.2841 11.9607 32.4994 12.9916 34.271 14.6001L33.1443 15.7267C32.9013 15.9697 32.9013 16.3635 33.1442 16.6065C33.2657 16.728 33.4249 16.7887 33.5842 16.7887C33.7434 16.7887 33.9026 16.728 34.0241 16.6065L35.1475 15.483C35.343 15.7018 35.5314 15.9289 35.7121 16.1638C37.1997 18.0971 38.0368 20.3882 38.1542 22.774H36.611C36.2674 22.774 35.9889 23.0526 35.9889 23.3961C35.9889 23.7397 36.2674 24.0183 36.611 24.0183H38.1508C38.1344 24.3151 38.107 24.6126 38.0681 24.9104C37.7476 27.3698 36.6889 29.5554 35.1449 31.2743L34.0791 30.2084C33.836 29.9655 33.4422 29.9655 33.1992 30.2084C32.9563 30.4514 32.9563 30.8453 33.1992 31.0882L34.2662 32.1552C32.3067 33.9245 29.7693 35.0349 27.0318 35.196V33.6751C27.0318 33.3315 26.7533 33.053 26.4097 33.053C26.066 33.053 25.7875 33.3315 25.7875 33.6751V35.2036C25.461 35.1883 25.1326 35.1602 24.8027 35.1172C22.3704 34.8002 20.2056 33.7615 18.4954 32.245L19.5973 31.1431C19.8402 30.9002 19.8402 30.5063 19.5973 30.2633C19.3543 30.0204 18.9604 30.0204 18.7175 30.2633L17.6093 31.3715C15.8134 29.4079 14.6838 26.8538 14.518 24.0958H16.1306C16.4742 24.0958 16.7528 23.8173 16.7528 23.4737C16.7528 23.1301 16.4742 22.8516 16.1306 22.8516H14.5089C14.524 22.5201 14.5523 22.1866 14.5959 21.8518C14.9074 19.4619 15.9383 17.2567 17.5031 15.5019L18.6626 16.6613C18.784 16.7829 18.9433 16.8436 19.1025 16.8436C19.2617 16.8436 19.4209 16.7829 19.5424 16.6613C19.7853 16.4184 19.7853 16.0244 19.5424 15.7816L18.3797 14.6189C19.1208 13.9455 19.9511 13.3605 20.8585 12.8863C21.163 12.7273 21.2808 12.3514 21.1217 12.047Z" fill="#FF5C38"/>
<path d="M26.3321 17.6744C25.9884 17.6744 25.7099 17.953 25.7099 18.2966V21.992C25.1795 22.2306 24.8086 22.7629 24.8086 23.3812C24.8086 24.2213 25.492 24.9047 26.3321 24.9047C26.5623 24.9047 26.78 24.8519 26.9759 24.76L31.1265 28.9105C31.248 29.0321 31.4072 29.0928 31.5665 29.0928C31.7256 29.0928 31.8849 29.0321 32.0064 28.9105C32.2494 28.6676 32.2494 28.2737 32.0064 28.0308L27.7916 23.8158C27.8327 23.678 27.8555 23.5323 27.8555 23.3812C27.8555 22.7629 27.4847 22.2306 26.9543 21.9921V18.2966C26.9542 17.953 26.6756 17.6744 26.3321 17.6744ZM26.0528 23.3812C26.0528 23.2272 26.1781 23.102 26.3321 23.102C26.4859 23.102 26.6112 23.2272 26.6112 23.3812C26.6112 23.5351 26.4859 23.6604 26.3321 23.6604C26.178 23.6604 26.0528 23.5351 26.0528 23.3812Z" fill="#FF5C38"/>
</svg>
